<svg width="1841" height="470" viewBox="0 0 1841 470" fill="none" xmlns="http://www.w3.org/2000/svg">
<path d="M0 0H136.619V168.224C147.972 163.124 158.275 156.827 169.473 153.761C216.91 140.754 261.945 144.423 300.915 177.648C319.039 193.101 329.384 214.068 334.354 236.904C338.584 256.346 341.909 276.347 342.34 296.177C343.468 347.835 342.796 399.528 342.814 451.204C342.814 452.806 342.581 454.409 342.417 456.459H205.488C205.488 453.427 205.488 450.713 205.488 448C205.488 402.138 205.6 356.286 205.359 310.425C205.325 304.024 204.635 297.202 202.327 291.327C196.021 275.228 181.016 268.087 162.995 271.455C147.929 274.271 137.032 287.193 136.877 304.085C136.524 342.495 136.722 380.905 136.696 419.315C136.696 431.409 136.696 443.495 136.696 456.261H0V0Z" fill="black"/>
<path d="M712.822 456.519H576.237V440.574C573.963 441.737 572.421 442.401 571.008 443.262C501.235 485.643 408.806 457.966 375.375 383.343C349.489 325.568 351.453 268.647 389.304 216.006C415.542 179.517 452.729 159.308 496.437 150.892C538.74 142.752 580.217 146.077 619.256 164.718C678.667 193.076 711.383 240.298 712.977 306.678C714.131 354.589 713.218 402.552 713.209 450.489C713.209 452.307 712.985 454.124 712.822 456.511V456.519ZM536.328 267.802C513.708 267.828 496.204 285.496 496.299 308.211C496.385 330.349 514.19 347.749 536.595 347.586C558.708 347.422 575.979 330.073 575.97 308.021C575.962 285.737 558.26 267.777 536.328 267.802Z" fill="black"/>
<path d="M1628.24 332.649C1628.5 350.092 1632.83 364.771 1647.31 374.039C1660.95 382.765 1676.05 384.101 1690.47 376.305C1696.22 373.195 1700.15 366.778 1704.98 361.937C1706.44 360.472 1708.16 358.112 1709.77 358.103C1750.76 357.888 1791.75 357.931 1834.69 357.931C1831.1 366.252 1828.5 373.798 1824.73 380.724C1796.87 431.978 1753.42 460.318 1695.73 467.226C1651.24 472.55 1608.73 466.227 1569.61 443.572C1525.32 417.928 1499.84 379.535 1491.97 328.773C1479.69 249.592 1531.65 183.074 1597.71 159.653C1662.43 136.696 1723.98 144.027 1780.79 182.73C1812.88 204.592 1833.51 234.897 1839.67 273.935C1840.46 278.975 1840.62 284.126 1840.82 289.243C1841.87 316.653 1826.65 332.571 1799.03 332.623C1745.2 332.726 1691.36 332.657 1637.52 332.657C1634.76 332.657 1631.99 332.657 1628.25 332.657L1628.24 332.649ZM1629.75 272.152H1707.18C1709.32 250.462 1692.35 231.589 1670.2 230.512C1647.22 229.392 1629.41 247.361 1629.75 272.152Z" fill="black"/>
<path d="M1134.87 319.297C1138.55 304.636 1142.02 291.026 1145.41 277.398C1154.79 239.72 1164.09 202.034 1173.64 164.399C1174.11 162.53 1176.57 159.765 1178.11 159.756C1227.97 159.515 1277.82 159.558 1328.46 159.558C1327.67 162.03 1327.21 163.968 1326.45 165.777C1297.1 235.922 1267.78 306.083 1238.27 376.167C1231.96 391.155 1225.99 406.428 1218.04 420.555C1191.56 467.614 1132.23 483.8 1085.44 457.277C1065.08 445.734 1052.24 427.507 1043.4 406.557C1009.23 325.568 975.438 244.424 941.516 163.331C941.171 162.495 941.008 161.591 940.431 159.541H948.123C994.269 159.541 1040.41 159.687 1086.56 159.377C1093.07 159.334 1095.03 161.599 1096.47 167.569C1108.48 217.048 1120.88 266.433 1133.18 315.843C1133.39 316.696 1133.95 317.454 1134.87 319.306V319.297Z" fill="black"/>
<path d="M932.402 159.567V270.094C924.21 270.094 916.346 269.775 908.507 270.154C884.06 271.334 871.131 283.721 869.994 308.133C869.098 327.42 869.339 346.759 869.261 366.08C869.158 393.55 869.236 421.021 869.236 448.491C869.236 450.989 869.236 453.487 869.236 456.45H732.66C732.393 454.995 731.867 453.47 731.876 451.937C732.143 398.633 731.945 345.32 733.03 292.034C733.487 269.68 737.975 247.628 747.037 226.903C762.585 191.336 790.805 171.54 828.06 164.33C843.057 161.428 858.52 160.359 873.818 159.756C893.105 158.998 912.444 159.576 932.411 159.576L932.402 159.567Z" fill="black"/>
<path d="M1473.38 159.937V456.459H1336.01V159.937H1473.38Z" fill="black"/>
<path d="M1526.33 19.2006C1565.33 19.0714 1596.71 49.9528 1597.02 88.7505C1597.33 127.643 1565.69 159.36 1526.58 159.36C1487.68 159.36 1456.46 128.229 1456.37 89.3621C1456.27 50.4265 1487.29 19.3384 1526.33 19.2092V19.2006Z" fill="black"/>
</svg>
